<svg width="256" height="256" viewBox="0 0 256 256" fill="none" xmlns="http://www.w3.org/2000/svg">
<rect width="256" height="256" rx="128" fill="url(#paint0_linear_2332_120)"/>
<g filter="url(#filter0_d_2332_120)">
<path d="M62.0716 116.491C55.8581 115.702 44.2727 119.525 44.2727 133.774C72.3421 154.171 74.0506 176.206 98.2456 194.738C99.912 199.737 100.932 208.42 100.932 208.42C110.809 208.42 123.255 208.864 131.551 208.42C139.848 207.977 144.268 197.252 146.025 192.701C147.778 197.122 152.334 207.848 159.208 208.42C166.081 208.993 171.06 208.42 171.06 208.42C171.06 208.42 170.073 203.482 170.073 199.531C170.073 195.58 170.073 195.58 171.06 189.654C172.048 183.727 182.913 171.874 182.913 171.874C185.876 167.924 188.84 161.009 189.827 158.046C190.815 154.095 191.803 145.206 191.803 141.255V118.537C191.803 118.537 191.803 104.343 191.094 91.6148C190.386 78.8863 189.397 68.2755 186.533 62.8651C183.669 57.4547 176.5 57.4085 173.209 59.5923C168.821 62.5041 168.107 69.6526 168.097 74.3994C168.272 78.2337 168.201 85.6741 168.56 88.596C168.55 93.3428 168.546 96.9545 168.875 102.211L170.073 119.525C168.56 108.864 165.814 95.0675 154.757 95.6358C143.699 96.2043 140.443 105.092 139.453 118.537C137.395 103.18 135.069 95.0158 124.683 95.6358C114.297 96.2559 112.282 106.384 111.797 119.525C108.458 104.162 104.891 89.7825 101.9 79.0278C98.9085 68.273 96.0392 60.7775 91.2785 58.9636C86.5178 57.1496 82.4884 58.6332 80.1893 61.2486C77.8901 63.8641 76.3854 69.3815 77.0133 76.9426C77.6411 84.5037 79.2016 90.8806 80.1893 93.8437C81.177 98.7824 82.1647 101.746 83.1525 106.684C84.1402 110.635 85.1279 111.623 86.1157 117.549C88.0911 125.451 90.7035 135.919 91.6912 140.858C88.65 137.981 79.6868 128.379 77.2683 125.913C72.4963 121.047 68.2852 117.279 62.0716 116.491Z" fill="white"/>
<path d="M62.0716 116.491C55.8581 115.702 44.2727 119.525 44.2727 133.774C72.3421 154.171 74.0506 176.206 98.2456 194.738C99.912 199.737 100.932 208.42 100.932 208.42C110.809 208.42 123.255 208.864 131.551 208.42C139.848 207.977 144.268 197.252 146.025 192.701C147.778 197.122 152.334 207.848 159.208 208.42C166.081 208.993 171.06 208.42 171.06 208.42C171.06 208.42 170.073 203.482 170.073 199.531C170.073 195.58 170.073 195.58 171.06 189.654C172.048 183.727 182.913 171.874 182.913 171.874C185.876 167.924 188.84 161.009 189.827 158.046C190.815 154.095 191.803 145.206 191.803 141.255V118.537C191.803 118.537 191.803 104.343 191.094 91.6148C190.386 78.8863 189.397 68.2755 186.533 62.8651C183.669 57.4547 176.5 57.4085 173.209 59.5923C168.821 62.5041 168.107 69.6526 168.097 74.3994C168.272 78.2337 168.201 85.6741 168.56 88.596C168.55 93.3428 168.546 96.9545 168.875 102.211L170.073 119.525C168.56 108.864 165.814 95.0675 154.757 95.6358C143.699 96.2043 140.443 105.092 139.453 118.537C137.395 103.18 135.069 95.0158 124.683 95.6358C114.297 96.2559 112.282 106.384 111.797 119.525C108.458 104.162 104.891 89.7825 101.9 79.0278C98.9085 68.273 96.0392 60.7775 91.2785 58.9636C86.5178 57.1496 82.4884 58.6332 80.1893 61.2486C77.8901 63.8641 76.3854 69.3815 77.0133 76.9426C77.6411 84.5037 79.2016 90.8806 80.1893 93.8437C81.177 98.7824 82.1647 101.746 83.1525 106.684C84.1402 110.635 85.1279 111.623 86.1157 117.549C88.0911 125.451 90.7035 135.919 91.6912 140.858C88.65 137.981 79.6868 128.379 77.2683 125.913C72.4963 121.047 68.2852 117.279 62.0716 116.491Z" stroke="black" stroke-width="8" stroke-linecap="round" stroke-linejoin="round"/>
</g>
<path d="M159.211 173.168V139.585" stroke="black" stroke-width="8" stroke-linecap="round"/>
<path d="M139.456 173.168L138.468 139.585" stroke="black" stroke-width="8" stroke-linecap="round"/>
<path d="M119.701 139.585V173.168" stroke="black" stroke-width="8" stroke-linecap="round"/>
<defs>
<filter id="filter0_d_2332_120" x="16.2727" y="46.1626" width="203.53" height="206.513" filterUnits="userSpaceOnUse" color-interpolation-filters="sRGB">
<feFlood flood-opacity="0" result="BackgroundImageFix"/>
<feColorMatrix in="SourceAlpha" type="matrix" values="0 0 0 0 0 0 0 0 0 0 0 0 0 0 0 0 0 0 127 0" result="hardAlpha"/>
<feOffset dy="16"/>
<feGaussianBlur stdDeviation="12"/>
<feComposite in2="hardAlpha" operator="out"/>
<feColorMatrix type="matrix" values="0 0 0 0 0 0 0 0 0 0 0 0 0 0 0 0 0 0 0.25 0"/>
<feBlend mode="normal" in2="BackgroundImageFix" result="effect1_dropShadow_2332_120"/>
<feBlend mode="normal" in="SourceGraphic" in2="effect1_dropShadow_2332_120" result="shape"/>
</filter>
<linearGradient id="paint0_linear_2332_120" x1="128" y1="0" x2="128" y2="256" gradientUnits="userSpaceOnUse">
<stop stop-color="#FF80F4"/>
<stop offset="1" stop-color="#FF00BF"/>
</linearGradient>
</defs>
</svg>
