<svg width="256" height="256" viewBox="0 0 256 256" fill="none" xmlns="http://www.w3.org/2000/svg">
<g clip-path="url(#clip0_2332_120)">
<g filter="url(#filter0_d_2332_120)">
<path d="M48.4804 102.456C41.3891 101.556 29.1442 105.08 25.422 117.718C23.9488 122.72 26.8588 127.684 30.8875 130.994C62.8183 157.231 66.7403 185.054 97.5891 208.682C99.8513 215.468 101.235 227.257 101.235 227.257C114.645 227.257 131.54 227.859 142.804 227.257C154.067 226.655 160.068 212.095 162.453 205.917C164.833 211.918 171.018 226.48 180.349 227.257C189.681 228.035 196.44 227.257 196.44 227.257C196.44 227.257 195.099 220.552 195.099 215.189C195.099 209.825 195.099 209.825 196.44 201.78C197.781 193.734 212.531 177.643 212.531 177.643C216.554 172.28 221.934 162.893 223.275 158.871C224.616 153.507 225.957 141.439 225.957 136.075V105.234C225.957 105.234 225.957 85.9651 224.995 68.6854C224.033 51.4056 222.349 40.0152 218.664 30.6219C214.979 21.2287 203.824 22.248 199.357 25.2127C193.4 29.1656 192.431 38.8702 192.418 45.3143C192.654 50.5197 192.559 60.6205 193.046 64.5871C193.032 71.0312 193.027 75.9344 193.473 83.0701L195.099 106.575C193.046 92.1024 189.319 73.3726 174.307 74.1443C159.295 74.9159 154.875 86.9816 153.531 105.234C150.736 84.3861 147.58 73.3025 133.48 74.1443C119.38 74.9861 116.644 88.7353 115.986 106.575C111.453 85.7189 106.61 66.198 102.549 51.5977C98.4889 36.9974 94.5938 26.8217 88.1308 24.3591C81.6677 21.8965 76.1976 23.9106 73.0764 27.4613C69.9551 31.0119 67.9123 38.5022 68.7647 48.7669C69.6171 59.0316 71.7355 67.6886 73.0764 71.7114C74.4173 78.4159 75.7582 82.4387 77.0991 89.1433C78.44 94.5069 79.7809 95.8478 81.1218 103.893C83.8037 114.621 87.3501 128.832 88.691 135.537C84.5624 131.631 72.3942 118.595 69.1109 115.248C62.6325 108.642 56.9158 103.527 48.4804 102.456Z" fill="white"/>
<path d="M48.4804 102.456C41.3891 101.556 29.1442 105.08 25.422 117.718C23.9488 122.72 26.8588 127.684 30.8875 130.994C62.8183 157.231 66.7403 185.054 97.5891 208.682C99.8513 215.468 101.235 227.257 101.235 227.257C114.645 227.257 131.54 227.859 142.804 227.257C154.067 226.655 160.068 212.095 162.453 205.917C164.833 211.918 171.018 226.48 180.349 227.257C189.681 228.035 196.44 227.257 196.44 227.257C196.44 227.257 195.099 220.552 195.099 215.189C195.099 209.825 195.099 209.825 196.44 201.78C197.781 193.734 212.531 177.643 212.531 177.643C216.554 172.28 221.934 162.893 223.275 158.871C224.616 153.507 225.957 141.439 225.957 136.075V105.234C225.957 105.234 225.957 85.9651 224.995 68.6854C224.033 51.4056 222.349 40.0152 218.664 30.6219C214.979 21.2287 203.824 22.248 199.357 25.2127C193.4 29.1656 192.431 38.8702 192.418 45.3143C192.654 50.5197 192.559 60.6205 193.046 64.5871C193.032 71.0312 193.027 75.9344 193.473 83.0701L195.099 106.575C193.046 92.1024 189.319 73.3726 174.307 74.1443C159.295 74.9159 154.875 86.9816 153.531 105.234C150.736 84.3861 147.58 73.3025 133.48 74.1443C119.38 74.9861 116.644 88.7353 115.986 106.575C111.453 85.7189 106.61 66.198 102.549 51.5977C98.4889 36.9974 94.5938 26.8217 88.1308 24.3591C81.6677 21.8965 76.1976 23.9106 73.0764 27.4613C69.9551 31.0119 67.9123 38.5022 68.7647 48.7669C69.6171 59.0316 71.7355 67.6886 73.0764 71.7114C74.4173 78.4159 75.7582 82.4387 77.0991 89.1433C78.44 94.5069 79.7809 95.8478 81.1218 103.893C83.8037 114.621 87.3501 128.832 88.691 135.537C84.5624 131.631 72.3942 118.595 69.1109 115.248C62.6325 108.642 56.9158 103.527 48.4804 102.456Z" stroke="black" stroke-width="10.7739" stroke-linecap="round" stroke-linejoin="round"/>
</g>
<path d="M180.354 179.4L180.354 133.84" stroke="black" stroke-width="10.7739" stroke-linecap="round"/>
<path d="M153.534 179.4L153.534 133.84" stroke="black" stroke-width="10.7739" stroke-linecap="round"/>
<path d="M126.716 133.84L126.716 179.4" stroke="black" stroke-width="10.7739" stroke-linecap="round"/>
</g>
<defs>
<filter id="filter0_d_2332_120" x="-0.367432" y="5.74414" width="251.711" height="255.246" filterUnits="userSpaceOnUse" color-interpolation-filters="sRGB">
<feFlood flood-opacity="0" result="BackgroundImageFix"/>
<feColorMatrix in="SourceAlpha" type="matrix" values="0 0 0 0 0 0 0 0 0 0 0 0 0 0 0 0 0 0 127 0" result="hardAlpha"/>
<feOffset dy="8"/>
<feGaussianBlur stdDeviation="10"/>
<feComposite in2="hardAlpha" operator="out"/>
<feColorMatrix type="matrix" values="0 0 0 0 0 0 0 0 0 0 0 0 0 0 0 0 0 0 0.35 0"/>
<feBlend mode="normal" in2="BackgroundImageFix" result="effect1_dropShadow_2332_120"/>
<feBlend mode="normal" in="SourceGraphic" in2="effect1_dropShadow_2332_120" result="shape"/>
</filter>
<clipPath id="clip0_2332_120">
<rect width="256" height="256" fill="white"/>
</clipPath>
</defs>
</svg>
